<svg width="900" height="900" viewBox="0 0 900 900" fill="none" xmlns="http://www.w3.org/2000/svg">
  <!-- White/Light Gray Background -->
  <rect width="900" height="900" fill="#F9FAFB"/>

  <!-- NORTH ZONE (Light Green - Healthy) -->
  <!-- Detailed outline for J&K, HP, Punjab, Haryana, Delhi, UP, Uttarakhand -->
  <path d="M 250 80 L 300 70 L 340 75 L 380 90 L 410 110 L 435 135 L 455 165 L 470 200 L 478 240 L 480 280 L 475 320 L 465 355 L 448 385 L 425 408 L 398 425 L 368 435 L 335 438 L 300 435 L 268 425 L 240 410 L 218 390 L 200 365 L 188 335 L 180 300 L 178 265 L 182 230 L 190 195 L 202 160 L 218 125 L 235 100 Z"
    fill="rgba(134, 239, 172, 0.4)"
    stroke="#10B981"
    stroke-width="2"/>

  <!-- WEST ZONE (Light Orange/Beige - Warning) -->
  <!-- Rajasthan, Gujarat, Maharashtra, Goa -->
  <path d="M 120 280 L 155 255 L 185 240 L 215 235 L 240 245 L 240 410 L 268 425 L 300 435 L 325 465 L 335 500 L 340 540 L 335 580 L 320 615 L 295 645 L 265 668 L 232 680 L 198 685 L 165 680 L 135 665 L 110 642 L 90 612 L 75 575 L 65 535 L 60 495 L 60 455 L 65 415 L 75 375 L 88 340 L 105 310 Z"
    fill="rgba(251, 191, 36, 0.3)"
    stroke="#F59E0B"
    stroke-width="2"/>

  <!-- EAST ZONE (Light Red/Pink - Action Recommended) -->
  <!-- Bihar, Jharkhand, WB, Odisha, Northeast States, Chhattisgarh -->
  <path d="M 478 240 L 525 255 L 570 280 L 610 315 L 645 360 L 670 410 L 685 460 L 690 510 L 685 555 L 670 595 L 645 630 L 610 655 L 570 670 L 530 675 L 490 670 L 455 655 L 425 635 L 400 610 L 380 580 L 365 545 L 355 505 L 352 465 L 355 425 L 365 390 L 380 360 L 398 335 L 420 310 L 445 285 L 465 265 Z"
    fill="rgba(252, 165, 165, 0.4)"
    stroke="#EF4444"
    stroke-width="2"/>

  <!-- SOUTH ZONE (Light Green - Healthy) -->
  <!-- Karnataka, Kerala, Tamil Nadu, AP, Telangana -->
  <path d="M 232 680 L 265 668 L 295 645 L 320 615 L 335 580 L 340 540 L 335 500 L 340 545 L 350 590 L 365 635 L 385 680 L 400 725 L 408 770 L 408 815 L 398 855 L 378 882 L 348 898 L 310 905 L 270 902 L 232 885 L 200 860 L 175 828 L 158 790 L 148 750 L 145 710 L 152 675 L 168 650 L 190 632 L 210 622 Z"
    fill="rgba(134, 239, 172, 0.4)"
    stroke="#10B981"
    stroke-width="2"/>

  <!-- Zone Labels with Navigation Icons -->

  <!-- Legend (Top Right) -->
  <g transform="translate(600, 50)">
    <rect width="260" height="70" rx="10" fill="white" stroke="#E5E7EB" stroke-width="1"/>
    <circle cx="25" cy="25" r="6" fill="#10B981"/>
    <text x="40" y="30" font-family="Arial, sans-serif" font-size="14" fill="#1F2937">Healthy</text>

    <circle cx="110" cy="25" r="6" fill="#F59E0B"/>
    <text x="125" y="30" font-family="Arial, sans-serif" font-size="14" fill="#1F2937">Warning</text>

    <circle cx="25" cy="50" r="6" fill="#EF4444"/>
    <text x="40" y="55" font-family="Arial, sans-serif" font-size="14" fill="#1F2937">Action Recommended</text>
  </g>

  <!-- North Zone Label -->
  <g transform="translate(320, 220)">
    <rect x="-85" y="-20" width="170" height="44" rx="22" fill="white" stroke="#E5E7EB" stroke-width="1.5"/>
    <path d="M -65 -5 L -60 -10 L -55 -5" stroke="#1F2937" stroke-width="1.5" fill="none" stroke-linecap="round" stroke-linejoin="round"/>
    <text x="-45" y="0" font-family="Arial, sans-serif" font-weight="600" font-size="15" fill="#1F2937">North Zone</text>
    <text x="-45" y="14" font-family="Arial, sans-serif" font-size="12" fill="#6B7280">(28 Cities)</text>
  </g>

  <!-- West Zone Label -->
  <g transform="translate(180, 420)">
    <rect x="-80" y="-20" width="160" height="44" rx="22" fill="white" stroke="#E5E7EB" stroke-width="1.5"/>
    <path d="M -60 -5 L -55 -10 L -50 -5" stroke="#1F2937" stroke-width="1.5" fill="none" stroke-linecap="round" stroke-linejoin="round"/>
    <text x="-40" y="0" font-family="Arial, sans-serif" font-weight="600" font-size="15" fill="#1F2937">West Zone</text>
    <text x="-40" y="14" font-family="Arial, sans-serif" font-size="12" fill="#6B7280">(31 Cities)</text>
  </g>

  <!-- East Zone Label -->
  <g transform="translate(570, 420)">
    <rect x="-75" y="-20" width="150" height="44" rx="22" fill="white" stroke="#E5E7EB" stroke-width="1.5"/>
    <path d="M -55 -5 L -50 -10 L -45 -5" stroke="#1F2937" stroke-width="1.5" fill="none" stroke-linecap="round" stroke-linejoin="round"/>
    <text x="-35" y="0" font-family="Arial, sans-serif" font-weight="600" font-size="15" fill="#1F2937">East Zone</text>
    <text x="-35" y="14" font-family="Arial, sans-serif" font-size="12" fill="#6B7280">(23 Cities)</text>
  </g>

  <!-- South Zone Label -->
  <g transform="translate(310, 655)">
    <rect x="-85" y="-20" width="170" height="44" rx="22" fill="white" stroke="#E5E7EB" stroke-width="1.5"/>
    <path d="M -65 -5 L -60 -10 L -55 -5" stroke="#1F2937" stroke-width="1.5" fill="none" stroke-linecap="round" stroke-linejoin="round"/>
    <text x="-45" y="0" font-family="Arial, sans-serif" font-weight="600" font-size="15" fill="#1F2937">South Zone</text>
    <text x="-45" y="14" font-family="Arial, sans-serif" font-size="12" fill="#6B7280">(18 Cities)</text>
  </g>

  <!-- Small islands (Andaman & Nicobar, Lakshadweep) -->
  <ellipse cx="720" cy="700" rx="8" ry="12" fill="#D1D5DB" opacity="0.5"/>
  <ellipse cx="720" cy="730" rx="6" ry="10" fill="#D1D5DB" opacity="0.5"/>
  <ellipse cx="720" cy="760" rx="5" ry="8" fill="#D1D5DB" opacity="0.5"/>

  <ellipse cx="140" cy="820" rx="4" ry="6" fill="#D1D5DB" opacity="0.5"/>
  <ellipse cx="150" cy="835" rx="3" ry="5" fill="#D1D5DB" opacity="0.5"/>
</svg>
