<svg width="725" height="818" viewBox="0 0 725 818" fill="none" xmlns="http://www.w3.org/2000/svg">
  <!-- West Zone (Orange/Yellow) -->
  <path d="M 0.05 202.83 L 62 245 L 110 295 L 148 365 L 175 428 L 186 485 L 195 550 L 185 595 L 165 612 L 146 613 L 125 605 L 105 585 L 85 555 L 65 515 L 48 468 L 35 420 L 25 370 L 18 320 L 15 280 L 20 245 L 35 215 Z"
    fill="rgba(255, 194, 98, 0.15)"
    stroke="#FFB63F"
    stroke-width="0.5"/>

  <!-- South Zone (Green) -->
  <path d="M 146.04 482.51 L 192 515 L 235 558 L 268 605 L 295 658 L 310 710 L 318 755 L 315 784 L 298 780 L 275 765 L 250 740 L 220 705 L 190 665 L 165 620 L 150 575 L 148 530 Z"
    fill="rgba(72, 208, 140, 0.15)"
    stroke="#00BE5F"
    stroke-width="0.5"/>

  <!-- North Zone (Green) -->
  <path d="M 109.75 0.05 L 175 15 L 240 38 L 295 68 L 340 105 L 375 148 L 395 195 L 408 245 L 410 295 L 398 340 L 375 378 L 345 400 L 310 410 L 270 405 L 230 385 L 195 355 L 165 318 L 142 278 L 125 235 L 115 190 L 110 145 L 108 95 L 108 45 Z"
    fill="rgba(72, 208, 140, 0.15)"
    stroke="#00BE5F"
    stroke-width="0.5"/>

  <!-- East Zone (Red) -->
  <path d="M 298.41 223.79 L 365 245 L 425 275 L 475 315 L 515 365 L 545 415 L 565 465 L 575 505 L 572 538 L 555 535 L 530 520 L 505 495 L 478 465 L 450 430 L 425 395 L 405 360 L 390 320 L 380 280 L 375 245 L 365 225 Z"
    fill="#FFC8BB"
    stroke="#B11D46"
    stroke-width="1"/>

  <!-- State divisions (gray vectors) for visual detail -->
  <!-- Small state markers in each region -->

  <!-- West Zone states -->
  <rect x="62" y="456" width="7" height="8" fill="#CCCCCC" stroke="#FFFFFF" stroke-width="0.5"/>
  <rect x="118" y="428" width="8" height="8" fill="#CCCCCC" stroke="#FFFFFF" stroke-width="0.5"/>
  <rect x="95" y="485" width="8" height="9" fill="#CCCCCC" stroke="#FFFFFF" stroke-width="0.5"/>
  <rect x="97" y="693" width="10" height="9" fill="#CCCCCC" stroke="#FFFFFF" stroke-width="0.5"/>
  <rect x="284" y="565" width="10" height="12" fill="#CCCCCC" stroke="#FFFFFF" stroke-width="0.5"/>
  <rect x="0.36" y="356" width="11" height="12" fill="#CCCCCC" stroke="#FFFFFF" stroke-width="0.5"/>
  <rect x="111" y="428" width="20" height="17" fill="#CCCCCC" stroke="#FFFFFF" stroke-width="0.5"/>
  <rect x="145" y="296" width="22" height="14" fill="#CCCCCC" stroke="#FFFFFF" stroke-width="0.5"/>
  <rect x="32" y="203" width="22" height="20" fill="#CCCCCC" stroke="#FFFFFF" stroke-width="0.5"/>
  <rect x="136" y="590" width="2" height="2" fill="#CCCCCC" stroke="#FFFFFF" stroke-width="0.5"/>

  <!-- South Zone states -->
  <rect x="212" y="503" width="20" height="17" fill="#CCCCCC" stroke="#FFFFFF" stroke-width="0.5"/>
  <rect x="146" y="521" width="11" height="18" fill="#CCCCCC" stroke="#FFFFFF" stroke-width="0.5"/>
  <rect x="166" y="666" width="6" height="11" fill="#CCCCCC" stroke="#FFFFFF" stroke-width="0.5"/>
  <rect x="224" y="483" width="11" height="11" fill="#CCCCCC" stroke="#FFFFFF" stroke-width="0.5"/>
  <rect x="199" y="647" width="12" height="14" fill="#CCCCCC" stroke="#FFFFFF" stroke-width="0.5"/>

  <!-- North Zone states -->
  <rect x="212" y="186" width="0.34" height="0.37" fill="#CCCCCC" stroke="#FFFFFF" stroke-width="0.5"/>
  <rect x="214" y="240" width="1.25" height="1.31" fill="#CCCCCC" stroke="#FFFFFF" stroke-width="0.5"/>
  <rect x="183" y="115" width="8.47" height="8.28" fill="#CCCCCC" stroke="#FFFFFF" stroke-width="0.5"/>
  <rect x="156" y="182" width="7.77" height="9.27" fill="#CCCCCC" stroke="#FFFFFF" stroke-width="0.5"/>
  <rect x="110" y="0.33" width="19.01" height="14.32" fill="#CCCCCC" stroke="#FFFFFF" stroke-width="0.5"/>
  <rect x="141" y="135" width="7.57" height="8.75" fill="#CCCCCC" stroke="#FFFFFF" stroke-width="0.5"/>
  <rect x="221" y="197" width="18.74" height="18.14" fill="#CCCCCC" stroke="#FFFFFF" stroke-width="0.5"/>
  <rect x="232" y="167" width="8.53" height="7.85" fill="#CCCCCC" stroke="#FFFFFF" stroke-width="0.5"/>

  <!-- East Zone states -->
  <rect x="579" y="224" width="14.5" height="7.83" fill="#CCCCCC" stroke="#FFFFFF" stroke-width="0.5"/>
  <rect x="533" y="266" width="15.68" height="10.51" fill="#CCCCCC" stroke="#FFFFFF" stroke-width="0.5"/>
  <rect x="299" y="372" width="10.28" height="16.65" fill="#CCCCCC" stroke="#FFFFFF" stroke-width="0.5"/>
  <rect x="375" y="338" width="11.52" height="9.05" fill="#CCCCCC" stroke="#FFFFFF" stroke-width="0.5"/>
  <rect x="536" y="317" width="7.37" height="2.91" fill="#CCCCCC" stroke="#FFFFFF" stroke-width="0.5"/>
  <rect x="614" y="329" width="4.38" height="5.02" fill="#CCCCCC" stroke="#FFFFFF" stroke-width="0.5"/>
  <rect x="596" y="361" width="2.94" height="6.89" fill="#CCCCCC" stroke="#FFFFFF" stroke-width="0.5"/>
  <rect x="623" y="292" width="4.73" height="5.05" fill="#CCCCCC" stroke="#FFFFFF" stroke-width="0.5"/>
  <rect x="327" y="413" width="15.11" height="12.49" fill="#CCCCCC" stroke="#FFFFFF" stroke-width="0.5"/>
  <rect x="491" y="262" width="2.24" height="2.89" fill="#CCCCCC" stroke="#FFFFFF" stroke-width="0.5"/>
  <rect x="569" y="360" width="2.91" height="4.17" fill="#CCCCCC" stroke="#FFFFFF" stroke-width="0.5"/>
  <rect x="437" y="287" width="10.05" height="15.35" fill="#CCCCCC" stroke="#FFFFFF" stroke-width="0.5"/>
  <rect x="375" y="279" width="8.88" height="8.9" fill="#CCCCCC" stroke="#FFFFFF" stroke-width="0.5"/>

  <!-- Zone Labels with Navigation Icons -->

  <!-- West Zone Label -->
  <g transform="translate(64, 373)">
    <rect width="179" height="36" rx="16" fill="#FFFFFF" stroke="#E0E0E0"/>
    <!-- Navigation icon -->
    <path d="M 10 13 L 15 8 L 20 13" stroke="#0A0A0A" stroke-width="1.185" fill="none"/>
    <path d="M 15 8 L 15 24" stroke="#0A0A0A" stroke-width="1.185"/>
    <text x="38" y="23" font-family="Noto Sans" font-weight="600" font-size="14" fill="#0A0A0A">West Zone</text>
    <text x="115" y="23" font-family="Noto Sans" font-weight="400" font-size="12" fill="#0A0A0A">(31 Cities)</text>
  </g>

  <!-- East Zone Label -->
  <g transform="translate(382, 378)">
    <rect width="174" height="36" rx="16" fill="#FFFFFF" stroke="#E0E0E0"/>
    <!-- Navigation icon -->
    <path d="M 10 13 L 15 8 L 20 13" stroke="#0A0A0A" stroke-width="1.185" fill="none"/>
    <path d="M 15 8 L 15 24" stroke="#0A0A0A" stroke-width="1.185"/>
    <text x="38" y="23" font-family="Noto Sans" font-weight="600" font-size="14" fill="#0A0A0A">East Zone</text>
    <text x="110" y="23" font-family="Noto Sans" font-weight="400" font-size="12" fill="#0A0A0A">(23 Cities)</text>
  </g>

  <!-- North Zone Label -->
  <g transform="translate(158, 179)">
    <rect width="185" height="36" rx="16" fill="#FFFFFF" stroke="#E0E0E0"/>
    <!-- Navigation icon -->
    <path d="M 10 13 L 15 8 L 20 13" stroke="#0A0A0A" stroke-width="1.185" fill="none"/>
    <path d="M 15 8 L 15 24" stroke="#0A0A0A" stroke-width="1.185"/>
    <text x="38" y="23" font-family="Noto Sans" font-weight="600" font-size="14" fill="#0A0A0A">North Zone</text>
    <text x="118" y="23" font-family="Noto Sans" font-weight="400" font-size="12" fill="#0A0A0A">(28 Cities)</text>
  </g>

  <!-- South Zone Label -->
  <g transform="translate(216, 608)">
    <rect width="185" height="36" rx="16" fill="#FFFFFF" stroke="#E0E0E0"/>
    <!-- Navigation icon -->
    <path d="M 10 13 L 15 8 L 20 13" stroke="#0A0A0A" stroke-width="1.185" fill="none"/>
    <path d="M 15 8 L 15 24" stroke="#0A0A0A" stroke-width="1.185"/>
    <text x="38" y="23" font-family="Noto Sans" font-weight="600" font-size="14" fill="#0A0A0A">South Zone</text>
    <text x="118" y="23" font-family="Noto Sans" font-weight="400" font-size="12" fill="#0A0A0A">(18 Cities)</text>
  </g>
</svg>
